<?xml version="1.0" encoding="UTF-8" standalone="no"?>
<!DOCTYPE svg PUBLIC "-//W3C//DTD SVG 1.1//EN" "http://www.w3.org/Graphics/SVG/1.1/DTD/svg11.dtd">
<svg width="100%" height="100%" viewBox="0 0 512 512" version="1.1" xmlns="http://www.w3.org/2000/svg" xmlns:xlink="http://www.w3.org/1999/xlink" xml:space="preserve" xmlns:serif="http://www.serif.com/" style="fill-rule:evenodd;clip-rule:evenodd;stroke-linejoin:round;stroke-miterlimit:2;">
    <g id="Layer1">
        <g transform="matrix(0.945263,0,0,0.945263,13.9659,14.8527)">
            <path d="M12.47,520.818L522.234,12.054C528.485,5.816 528.494,-4.323 522.256,-10.573C516.018,-16.824 505.879,-16.834 499.629,-10.596L-10.135,498.169C-16.386,504.407 -16.395,514.546 -10.157,520.796C-3.919,527.046 6.22,527.056 12.47,520.818Z"/>
        </g>
        <g transform="matrix(-0.945263,0,0,0.945263,498.034,14.8527)">
            <path d="M12.47,520.818L522.234,12.054C528.485,5.816 528.494,-4.323 522.256,-10.573C516.018,-16.824 505.879,-16.834 499.629,-10.596L-10.135,498.169C-16.386,504.407 -16.395,514.546 -10.157,520.796C-3.919,527.046 6.22,527.056 12.47,520.818Z"/>
        </g>
    </g>
</svg>
