<?xml version="1.0" encoding="UTF-8" standalone="no"?>
<!DOCTYPE svg PUBLIC "-//W3C//DTD SVG 1.1//EN" "http://www.w3.org/Graphics/SVG/1.1/DTD/svg11.dtd">
<svg width="100%" height="100%" viewBox="0 0 61 188" version="1.1" xmlns="http://www.w3.org/2000/svg" xmlns:xlink="http://www.w3.org/1999/xlink" xml:space="preserve" xmlns:serif="http://www.serif.com/" style="fill-rule:evenodd;clip-rule:evenodd;stroke-linejoin:round;stroke-miterlimit:2;">
    <g id="Human" transform="matrix(0.753218,0,0,0.661315,-271.758,-100.186)">
        <rect x="360.795" y="151.495" width="79.751" height="282.927" style="fill:none;"/>
        <g transform="matrix(1.01934,0,0,1,-8.31281,0)">
            <g transform="matrix(-1.13806,0,0,1.28246,857.125,-49.9155)">
                <g>
                    <g transform="matrix(-1.41243,0,0,0.886746,934.745,90.7057)">
                        <path d="M377.446,227.302L362.436,227.302C362.436,227.302 362.587,253.269 364.949,277.333C365.608,284.052 367.684,305.981 368.353,311.759C368.378,311.976 368.963,311.999 368.963,311.999C368.963,311.999 369.022,313.307 369.05,313.983C369.095,315.069 365.43,318.097 364.891,319.253C364.361,320.391 364.53,323.401 364.53,323.401L366.487,323.469L377.446,323.469L377.446,227.302Z" style="fill:rgb(3,51,116);"/>
                    </g>
                    <g transform="matrix(-0.927175,0,0,0.871288,769.689,17.5353)">
                        <path d="M381.188,208.496C381.421,208.507 375.478,212.229 370.892,218.509C368.125,222.298 365.761,227.574 364.901,232.607C363.491,240.848 362.639,257.259 362.434,267.96C362.249,277.584 362.384,288.553 363.67,296.81C364.191,300.158 365.275,304.156 366.453,307.814C366.628,308.357 367.893,307.444 368.07,307.969C369.249,311.451 369.365,315.91 370.149,317.502C370.694,318.609 373.054,318.444 373.852,317.502C374.862,316.309 376.076,312.852 376.212,310.343C376.651,302.213 375.9,281.081 376.488,268.721C376.908,259.907 378.782,244.04 379.481,238.314C379.629,237.099 380.586,236.2 381.704,236.224C382.172,236.234 382.539,236.242 382.539,236.242L381.188,208.496Z" style="fill:rgb(3,51,116);"/>
                    </g>
                </g>
                <g transform="matrix(-1.14445,0,0,1.17909,438.669,151.98)">
                    <path d="M16.055,44.022C14.36,50.996 14.932,63.727 15.109,79.554C15.172,85.175 13.335,89.885 13.045,94.672C12.191,108.824 11.962,119.055 11.962,119.055C11.962,119.055 27.555,120.734 32.213,121.236C32.216,120.902 32.36,120.585 32.61,120.363C32.86,120.14 33.192,120.034 33.524,120.07C33.623,109.324 34.27,35.898 33.4,35.898C32.461,35.898 29.949,36.213 25.284,37.71C23.537,38.271 16.936,40.401 16.055,44.022Z" style="fill:rgb(3,51,116);"/>
                </g>
                <g transform="matrix(-1.14445,0,0,1.17909,438.669,205.039)">
                    <path d="M33.451,0.357C30.751,0.197 20.043,1.644 19.738,16.84C19.68,19.7 18.751,22.289 20.128,24.339C21.505,26.389 24.956,26.748 27.999,29.14C29.072,29.982 26.69,37.474 26.69,37.474C26.69,37.474 32.064,36.937 33.587,36.927" style="fill:rgb(3,51,116);"/>
                </g>
            </g>
            <g transform="matrix(1.13806,0,0,1.28246,-54.467,-49.9155)">
                <g>
                    <g transform="matrix(-1.41243,0,0,0.886746,934.745,90.7057)">
                        <path d="M377.446,227.302L362.436,227.302C362.436,227.302 362.587,253.269 364.949,277.333C365.608,284.052 367.684,305.981 368.353,311.759C368.378,311.976 368.963,311.999 368.963,311.999C368.963,311.999 369.022,313.307 369.05,313.983C369.095,315.069 365.43,318.097 364.891,319.253C364.361,320.391 364.53,323.401 364.53,323.401L366.487,323.469L377.446,323.469L377.446,227.302Z" style="fill:rgb(3,51,116);"/>
                    </g>
                    <g transform="matrix(-0.927175,0,0,0.871288,769.689,17.5353)">
                        <path d="M381.188,208.496C381.421,208.507 375.478,212.229 370.892,218.509C368.125,222.298 365.761,227.574 364.901,232.607C363.491,240.848 362.639,257.259 362.434,267.96C362.249,277.584 362.384,288.553 363.67,296.81C364.191,300.158 365.275,304.156 366.453,307.814C366.628,308.357 367.893,307.444 368.07,307.969C369.249,311.451 369.365,315.91 370.149,317.502C370.694,318.609 373.054,318.444 373.852,317.502C374.862,316.309 376.076,312.852 376.212,310.343C376.651,302.213 375.9,281.081 376.488,268.721C376.908,259.907 378.782,244.04 379.481,238.314C379.629,237.099 380.586,236.2 381.704,236.224C382.172,236.234 382.539,236.242 382.539,236.242L381.188,208.496Z" style="fill:rgb(3,51,116);"/>
                    </g>
                </g>
                <g transform="matrix(-1.14445,0,0,1.17909,438.669,151.98)">
                    <path d="M16.055,44.022C14.36,50.996 14.932,63.727 15.109,79.554C15.172,85.175 13.335,89.885 13.045,94.672C12.191,108.824 11.962,119.055 11.962,119.055C11.962,119.055 27.555,120.734 32.213,121.236C32.216,120.902 32.36,120.585 32.61,120.363C32.86,120.14 33.192,120.034 33.524,120.07C33.623,109.324 34.27,35.898 33.4,35.898C32.461,35.898 29.949,36.213 25.284,37.71C23.537,38.271 16.936,40.401 16.055,44.022Z" style="fill:rgb(3,51,116);"/>
                </g>
                <g transform="matrix(-1.14445,0,0,1.17909,438.669,205.039)">
                    <path d="M33.451,0.357C30.751,0.197 20.043,1.644 19.738,16.84C19.68,19.7 18.751,22.289 20.128,24.339C21.505,26.389 24.956,26.748 27.999,29.14C29.072,29.982 26.69,37.474 26.69,37.474C26.69,37.474 32.064,36.937 33.587,36.927" style="fill:rgb(3,51,116);"/>
                </g>
            </g>
        </g>
        <g transform="matrix(1.32764,0,0,1.51214,360.795,148.471)">
            <circle cx="30.618" cy="19.519" r="11.097" style="fill:rgb(3,51,116);"/>
        </g>
    </g>
</svg>
