<?xml version="1.0" encoding="UTF-8" standalone="no"?>
<!DOCTYPE svg PUBLIC "-//W3C//DTD SVG 1.1//EN" "http://www.w3.org/Graphics/SVG/1.1/DTD/svg11.dtd">
<svg width="100%" height="100%" viewBox="0 0 61 188" version="1.1" xmlns="http://www.w3.org/2000/svg" xmlns:xlink="http://www.w3.org/1999/xlink" xml:space="preserve" xmlns:serif="http://www.serif.com/" style="fill-rule:evenodd;clip-rule:evenodd;stroke-linejoin:round;stroke-miterlimit:2;">
    <g id="Human" transform="matrix(0.753218,0,0,0.661315,-271.758,-100.186)">
        <rect x="360.795" y="151.495" width="79.751" height="282.927" style="fill:none;"/>
        <g transform="matrix(1.01934,0,0,1,-8.31281,0)">
            <g transform="matrix(-1.13806,0,0,1.28246,857.125,-49.9155)">
                <g>
                    <g transform="matrix(-1.41243,0,0,0.886746,934.745,90.7057)">
                        <path d="M377.446,227.302L362.436,227.302C362.436,227.302 366.27,300.729 366.62,316.642C366.643,317.731 365.43,318.097 364.891,319.253C364.361,320.391 364.53,323.401 364.53,323.401L366.487,323.469L377.446,323.469L377.446,227.302Z" style="fill:rgb(3,51,116);"/>
                    </g>
                    <g transform="matrix(-0.927175,0,0,0.871288,769.689,17.5353)">
                        <path d="M384.272,208.281C384.505,208.292 375.478,212.229 370.892,218.509C368.125,222.298 365.761,227.574 364.901,232.607C363.491,240.848 362.639,257.259 362.434,267.96C362.249,277.584 362.384,288.553 363.67,296.81C364.191,300.158 365.275,304.156 366.453,307.814C366.628,308.357 367.893,307.444 368.07,307.969C369.249,311.451 369.365,315.91 370.149,317.502C370.694,318.609 373.054,318.444 373.852,317.502C374.862,316.309 376.076,312.852 376.212,310.343C376.651,302.213 375.9,281.081 376.488,268.721C376.908,259.907 378.782,244.04 379.481,238.314C379.629,237.099 380.586,236.2 381.704,236.224C382.172,236.234 382.539,236.242 382.539,236.242L384.272,208.281Z" style="fill:rgb(3,51,116);"/>
                    </g>
                </g>
                <g transform="matrix(-1.14445,0,0,1.17909,438.669,151.98)">
                    <path d="M15.46,41.468C13.765,48.442 14.932,63.727 15.109,79.554C15.172,85.175 13.335,89.885 13.045,94.672C12.191,108.824 11.962,119.055 11.962,119.055C11.962,119.055 27.772,119.291 32.308,119.358C32.308,119.041 32.435,118.736 32.661,118.513C32.887,118.291 33.193,118.168 33.51,118.172C33.496,107.938 33.4,35.898 33.4,35.898C33.4,35.898 30.109,36.864 25.284,37.71C21.41,38.389 16.289,38.061 15.46,41.468Z" style="fill:rgb(3,51,116);"/>
                </g>
                <g transform="matrix(-1.14445,0,0,1.17909,438.669,157.875)">
                    <path d="M33.451,0.357C30.751,0.197 19.089,1.668 20,16.84C20.415,23.758 23.796,27.968 26.999,30.14C28.128,30.905 26.69,37.474 26.69,37.474C26.69,37.474 32.064,36.937 33.587,36.927" style="fill:rgb(3,51,116);"/>
                </g>
            </g>
            <g transform="matrix(1.13806,0,0,1.28246,-54.467,-49.9155)">
                <g>
                    <g transform="matrix(-1.41243,0,0,0.886746,934.745,90.7057)">
                        <path d="M377.446,227.302L362.436,227.302C362.436,227.302 366.27,300.729 366.62,316.642C366.643,317.731 365.43,318.097 364.891,319.253C364.361,320.391 364.53,323.401 364.53,323.401L366.487,323.469L377.446,323.469L377.446,227.302Z" style="fill:rgb(3,51,116);"/>
                    </g>
                    <g transform="matrix(-0.927175,0,0,0.871288,769.689,17.5353)">
                        <path d="M384.272,208.281C384.505,208.292 375.478,212.229 370.892,218.509C368.125,222.298 365.761,227.574 364.901,232.607C363.491,240.848 362.639,257.259 362.434,267.96C362.249,277.584 362.384,288.553 363.67,296.81C364.191,300.158 365.275,304.156 366.453,307.814C366.628,308.357 367.893,307.444 368.07,307.969C369.249,311.451 369.365,315.91 370.149,317.502C370.694,318.609 373.054,318.444 373.852,317.502C374.862,316.309 376.076,312.852 376.212,310.343C376.651,302.213 375.9,281.081 376.488,268.721C376.908,259.907 378.782,244.04 379.481,238.314C379.629,237.099 380.586,236.2 381.704,236.224C382.172,236.234 382.539,236.242 382.539,236.242L384.272,208.281Z" style="fill:rgb(3,51,116);"/>
                    </g>
                </g>
                <g transform="matrix(-1.14445,0,0,1.17909,438.669,151.98)">
                    <path d="M15.46,41.468C13.765,48.442 14.932,63.727 15.109,79.554C15.172,85.175 13.335,89.885 13.045,94.672C12.191,108.824 11.962,119.055 11.962,119.055C11.962,119.055 27.772,119.291 32.308,119.358C32.308,119.041 32.435,118.736 32.661,118.513C32.887,118.291 33.193,118.168 33.51,118.172C33.496,107.938 33.4,35.898 33.4,35.898C33.4,35.898 30.109,36.864 25.284,37.71C21.41,38.389 16.289,38.061 15.46,41.468Z" style="fill:rgb(3,51,116);"/>
                </g>
                <g transform="matrix(-1.14445,0,0,1.17909,438.669,157.875)">
                    <path d="M33.451,0.357C30.751,0.197 19.089,1.668 20,16.84C20.415,23.758 23.796,27.968 26.999,30.14C28.128,30.905 26.69,37.474 26.69,37.474C26.69,37.474 32.064,36.937 33.587,36.927" style="fill:rgb(3,51,116);"/>
                </g>
            </g>
        </g>
        <g transform="matrix(0.726777,0,0,0.827776,379.345,186.07)">
            <path d="M24.087,68.933C24.497,67.437 24.066,65.582 24.139,64.113C24.206,62.777 24.384,61.449 24.526,60.119C24.687,58.609 24.895,56.543 25.107,55.052C25.293,53.753 25.538,52.462 25.803,51.177C26.098,49.747 26.544,47.762 26.877,46.472C27.142,45.446 27.499,44.371 27.8,43.432C28.079,42.56 28.405,41.67 28.683,40.832C28.95,40.024 29.113,39.041 29.468,38.404C29.781,37.84 30.393,37.23 30.808,37.01C31.145,36.83 31.773,36.878 31.953,37.079C32.134,37.281 31.983,37.848 31.892,38.217C31.788,38.639 31.381,39.156 31.33,39.613C31.279,40.066 31.316,40.586 31.583,40.956C32.067,41.628 33.729,43.454 34.235,43.645C34.732,43.832 34.567,42.63 34.623,42.102C34.687,41.49 34.769,40.667 34.623,39.973C34.474,39.266 33.581,37.938 33.73,37.862C33.88,37.786 35.063,38.846 35.522,39.517C36.017,40.243 36.353,41.325 36.704,42.213C37.046,43.078 37.381,43.948 37.626,44.845C37.908,45.875 38.154,47.307 38.395,48.396C38.615,49.392 38.885,50.377 39.071,51.38C39.276,52.49 39.46,53.928 39.626,55.052C39.777,56.076 40.009,57.093 40.068,58.126C40.137,59.321 40.035,60.857 40.039,62.222C40.042,63.594 40.053,65.006 40.088,66.356C40.124,67.68 40.347,69.059 40.254,70.324C40.163,71.551 39.777,72.739 39.528,73.944C39.238,75.35 38.759,77.533 38.512,78.759C38.342,79.604 38.257,80.501 38.047,81.303C37.844,82.077 37.473,82.868 37.252,83.568C37.051,84.205 36.727,84.964 36.72,85.5C36.715,85.957 37.003,86.374 37.213,86.78C37.447,87.234 37.859,87.722 38.127,88.226C38.472,88.876 38.996,90.021 39.286,90.682C39.503,91.175 39.935,91.787 39.867,92.189C39.799,92.591 39.282,92.903 38.878,93.093C38.399,93.318 37.599,93.312 36.994,93.537C36.376,93.767 35.635,94.03 35.172,94.471C34.709,94.911 34.403,95.554 34.216,96.18C33.991,96.936 33.899,98.057 33.821,99.005C33.735,100.056 33.646,101.328 33.7,102.489C33.755,103.681 33.948,104.994 34.152,106.16C34.348,107.281 34.695,108.451 34.924,109.486C35.137,110.443 35.303,111.411 35.529,112.366C35.838,113.674 36.468,116.051 36.778,117.332C36.996,118.234 37.18,119.144 37.388,120.048C37.648,121.178 38.071,122.876 38.338,124.109C38.578,125.216 38.892,126.316 38.991,127.444C39.1,128.688 38.998,130.27 38.991,131.569C38.985,132.792 39.012,134.072 38.952,135.238C38.895,136.35 38.853,137.473 38.631,138.565C38.398,139.71 37.924,141.145 37.556,142.11C37.257,142.895 36.719,143.726 36.423,144.359C36.187,144.865 36.305,145.711 35.782,145.907C34.438,146.411 30.246,147.143 28.363,147.38C27.08,147.542 25.763,147.517 24.484,147.33C23.161,147.136 21.753,146.571 20.428,146.219C19.133,145.875 17.701,145.57 16.533,145.221C15.479,144.905 14.263,144.464 13.421,144.122C12.753,143.85 11.437,143.598 11.48,143.168C11.524,142.738 12.937,142.069 13.682,141.542C14.675,140.84 16.439,139.759 17.441,138.956C18.266,138.294 18.973,137.495 19.696,136.723C20.459,135.907 21.304,134.995 22.022,134.06C22.76,133.1 23.482,131.947 24.125,130.96C24.731,130.032 25.318,129.091 25.884,128.139C26.539,127.036 27.543,125.424 28.057,124.343C28.464,123.489 28.663,122.517 28.969,121.655C29.263,120.822 29.628,120.014 29.888,119.17C30.177,118.233 30.53,117.077 30.701,116.031C30.87,114.997 31.192,113.324 30.914,112.894C30.637,112.465 29.684,113.359 29.038,113.452C28.211,113.572 26.775,113.559 25.951,113.611C25.332,113.65 24.633,113.669 24.096,113.764C23.626,113.847 23.122,113.933 22.726,114.181C22.329,114.429 21.782,115.69 21.719,115.25C21.656,114.81 21.983,112.579 22.346,111.541C22.672,110.61 23.399,109.872 23.896,109.02C24.408,108.145 24.904,107.096 25.416,106.29C25.883,105.553 26.486,104.91 26.965,104.182C27.507,103.358 28.596,102.446 28.664,101.347C28.762,99.782 27.893,96.584 27.548,94.795C27.277,93.391 26.906,91.901 26.596,90.612C26.311,89.426 25.917,88.264 25.689,87.065C25.44,85.752 25.71,83.718 25.102,82.735C24.499,81.759 22.895,81.515 22.041,81.165C21.383,80.896 20.488,80.713 19.974,80.639C19.638,80.59 18.944,81.059 18.96,80.72C18.993,79.992 19.724,77.545 20.177,76.273C20.571,75.168 21.128,74.125 21.68,73.09C22.332,71.866 23.677,70.429 24.087,68.933Z" style="fill:rgb(42,132,250);"/>
        </g>
    </g>
</svg>
