<?xml version="1.0" encoding="UTF-8" standalone="no"?>
<!DOCTYPE svg PUBLIC "-//W3C//DTD SVG 1.1//EN" "http://www.w3.org/Graphics/SVG/1.1/DTD/svg11.dtd">
<svg width="100%" height="100%" viewBox="0 0 40 40" version="1.1" xmlns="http://www.w3.org/2000/svg" xmlns:xlink="http://www.w3.org/1999/xlink" xml:space="preserve" xmlns:serif="http://www.serif.com/" style="fill-rule:evenodd;clip-rule:evenodd;stroke-linecap:round;stroke-linejoin:round;stroke-miterlimit:1.5;">
    <g transform="matrix(1,0,0,1,-177.173,-4.52353)">
        <g id="microplastics" transform="matrix(0.914327,0,0,1.39028,102.888,1.52407)">
            <rect x="81.247" y="2.157" width="43.748" height="28.771" style="fill:none;"/>
            <g transform="matrix(0.0627344,0,0,0.0385447,89.2616,4.79188)">
                <g>
                    <g transform="matrix(1,0,0,1,29.6498,-41.5268)">
                        <g transform="matrix(1.11532,0,0,1.19382,-90.1009,115.702)">
                            <path d="M358.194,18.861L316.656,252.977L184.397,252.977L142.397,22.918" style="fill:none;stroke:rgb(3,51,116);stroke-width:16.61px;"/>
                        </g>
                        <g transform="matrix(1.2146,0,0,0.938455,-111.052,48.9108)">
                            <path d="M136.417,99.51L361.388,99.51C367.219,99.51 371.953,94.776 371.953,88.945C371.953,83.114 371.953,78.38 371.953,78.38L125.852,78.38C125.852,78.38 125.852,83.114 125.852,88.945C125.852,94.776 130.586,99.51 136.417,99.51Z" style="fill:rgb(3,51,116);"/>
                        </g>
                    </g>
                    <g transform="matrix(1.55522,5.28442e-20,-4.93692e-20,-1.66426,86.4454,790.586)">
                        <circle cx="107.005" cy="221.003" r="11.157" style="fill:none;stroke:rgb(3,51,116);stroke-width:5.61px;"/>
                    </g>
                    <g transform="matrix(1.55522,5.28442e-20,-4.93692e-20,-1.66426,28.568,818.654)">
                        <circle cx="107.005" cy="221.003" r="11.157" style="fill:none;stroke:rgb(3,51,116);stroke-width:5.61px;"/>
                    </g>
                    <g transform="matrix(1.55522,5.28442e-20,-4.93692e-20,-1.66426,67.594,878.04)">
                        <circle cx="107.005" cy="221.003" r="11.157" style="fill:none;stroke:rgb(3,51,116);stroke-width:5.61px;"/>
                    </g>
                    <g transform="matrix(1.66046,0,0,1.77733,12.5877,-131.935)">
                        <circle cx="107.005" cy="221.003" r="11.157" style="fill:rgb(0,183,236);fill-opacity:0.73;"/>
                    </g>
                    <g transform="matrix(1.66046,0,0,1.77733,19.875,-203.971)">
                        <circle cx="107.005" cy="221.003" r="11.157" style="fill:rgb(0,183,236);fill-opacity:0.73;"/>
                    </g>
                    <g transform="matrix(1.66046,0,0,1.77733,77.8654,-102.668)">
                        <circle cx="107.005" cy="221.003" r="11.157" style="fill:rgb(0,183,236);fill-opacity:0.73;"/>
                    </g>
                </g>
            </g>
        </g>
    </g>
</svg>
