<?xml version="1.0" encoding="UTF-8" standalone="no"?>
<!DOCTYPE svg PUBLIC "-//W3C//DTD SVG 1.1//EN" "http://www.w3.org/Graphics/SVG/1.1/DTD/svg11.dtd">
<svg width="100%" height="100%" viewBox="0 0 100 50" version="1.1" xmlns="http://www.w3.org/2000/svg" xmlns:xlink="http://www.w3.org/1999/xlink" xml:space="preserve" xmlns:serif="http://www.serif.com/" style="fill-rule:evenodd;clip-rule:evenodd;stroke-linecap:round;stroke-linejoin:round;stroke-miterlimit:1.5;">
    <g transform="matrix(1,0,0,1,-439.817,0)">
        <g id="serving-can" transform="matrix(0.737966,0,0,0.90855,300.384,-2.76622)">
            <rect x="188.941" y="3.045" width="135.508" height="55.033" style="fill:none;"/>
            <g transform="matrix(1,0,0,1,5.71887,-1.10065)">
                <g transform="matrix(1.35508,0,0,1.10065,-408.697,7.44727)">
                    <path d="M463.011,32.29L463.011,18.448C463.011,18.448 464.601,10.603 490.511,10.603C516.421,10.603 516.987,18.448 516.987,18.448L516.987,32.29C516.987,32.29 514.01,40.515 490.266,40.515C463.971,40.515 463.011,32.29 463.011,32.29Z" style="fill:rgb(0,183,236);fill-opacity:0.2;"/>
                </g>
                <g transform="matrix(1.35508,0,0,1.10065,-407.044,3.04466)">
                    <path d="M485.596,10.586C500.977,10.586 513.464,14.339 513.464,18.962C513.464,23.585 500.977,27.338 485.596,27.338C470.216,27.338 457.729,23.585 457.729,18.962C457.729,14.339 470.216,10.586 485.596,10.586ZM485.596,12.586C494.511,12.586 502.425,13.858 507.326,15.867C508.763,16.456 509.919,17.093 510.703,17.801C511.129,18.185 511.464,18.534 511.464,18.962C511.464,19.389 511.129,19.738 510.703,20.123C509.919,20.83 508.763,21.467 507.326,22.057C502.425,24.065 494.511,25.338 485.596,25.338C476.681,25.338 468.768,24.065 463.867,22.057C462.43,21.467 461.274,20.83 460.49,20.123C460.064,19.738 459.729,19.389 459.729,18.962C459.729,18.534 460.064,18.185 460.49,17.801C461.274,17.093 462.43,16.456 463.867,15.867C468.768,13.858 476.681,12.586 485.596,12.586Z" style="fill:rgb(3,51,116);"/>
                </g>
                <g transform="matrix(1.18151,0,0,0.744315,-322.608,9.85151)">
                    <path d="M485.596,10.586C500.977,10.586 513.464,14.339 513.464,18.962C513.464,23.585 500.977,27.338 485.596,27.338C470.216,27.338 457.729,23.585 457.729,18.962C457.729,14.339 470.216,10.586 485.596,10.586ZM485.596,12.065C496.156,12.065 505.33,13.825 509.881,16.463C510.736,16.958 511.411,17.471 511.866,18.025C512.124,18.339 512.317,18.625 512.317,18.962C512.317,19.299 512.124,19.585 511.866,19.898C511.411,20.452 510.736,20.966 509.881,21.461C505.33,24.098 496.156,25.859 485.596,25.859C475.037,25.859 465.863,24.098 461.311,21.461C460.457,20.966 459.781,20.452 459.327,19.898C459.069,19.585 458.876,19.299 458.876,18.962C458.876,18.625 459.069,18.339 459.327,18.025C459.781,17.471 460.457,16.958 461.311,16.463C465.863,13.825 475.037,12.065 485.596,12.065Z" style="fill:rgb(3,51,116);"/>
                </g>
                <g transform="matrix(1.35508,0,0,1.10065,-408.296,2.98979)">
                    <path d="M513.464,18.962L513.464,33.547" style="fill:none;stroke:rgb(3,51,116);stroke-width:2px;"/>
                </g>
                <g transform="matrix(1.30987,0,0,1.10065,-385.038,18.4538)">
                    <path d="M513.464,18.962C513.464,23.585 500.977,27.338 485.596,27.338C470.216,27.338 457.729,23.585 457.729,18.962" style="fill:none;stroke:rgb(3,51,116);stroke-width:2.03px;"/>
                </g>
                <g transform="matrix(1.35508,0,0,1.10065,-405.857,3.2293)">
                    <path d="M457.729,18.962L457.729,32.962" style="fill:none;stroke:rgb(3,51,116);stroke-width:2px;"/>
                </g>
                <g transform="matrix(0.0493627,0,0,0.0609659,233.063,28.6124)">
                    <g transform="matrix(1.45532,0,0,0.957112,25.1445,-29.2863)">
                        <path d="M421.799,286.636C414.473,291.479 398.644,252.71 355.754,252.71C312.864,252.71 304.082,302.589 200.463,302.589C96.844,302.589 60.855,224.781 60.855,224.781C60.855,224.781 96.844,141.782 200.463,141.782C304.082,141.782 312.864,191.661 355.754,191.661C398.644,191.661 414.473,152.403 421.799,157.735C429.125,163.067 388.323,223.65 388.323,223.65C388.323,223.65 429.125,281.793 421.799,286.636Z" style="fill:rgb(3,51,116);"/>
                    </g>
                    <g transform="matrix(2.96112,0,0,1.9474,-106.63,-268.192)">
                        <circle cx="113.557" cy="228.309" r="11.193" style="fill:white;"/>
                    </g>
                </g>
            </g>
        </g>
    </g>
</svg>
