<?xml version="1.0" encoding="UTF-8" standalone="no"?>
<!DOCTYPE svg PUBLIC "-//W3C//DTD SVG 1.1//EN" "http://www.w3.org/Graphics/SVG/1.1/DTD/svg11.dtd">
<svg width="100%" height="100%" viewBox="0 0 100 50" version="1.1" xmlns="http://www.w3.org/2000/svg" xmlns:xlink="http://www.w3.org/1999/xlink" xml:space="preserve" xmlns:serif="http://www.serif.com/" style="fill-rule:evenodd;clip-rule:evenodd;stroke-linecap:round;stroke-linejoin:round;stroke-miterlimit:1.5;">
    <g transform="matrix(1,0,0,1,-331.248,-1.5207)">
        <g id="serving-sushi" transform="matrix(0.737966,0,0,0.90855,191.816,-1.24553)">
            <rect x="188.941" y="3.045" width="135.508" height="55.033" style="fill:none;"/>
            <g transform="matrix(1.35508,0,0,0.96734,-107.776,6.15648)">
                <ellipse cx="268.968" cy="24.918" rx="43.266" ry="18.769" style="fill:rgb(0,183,236);fill-opacity:0.29;"/>
            </g>
            <g transform="matrix(1,0,0,1,0,-1.10065)">
                <g transform="matrix(1.141,0,0,1.10065,-191.553,-0.192723)">
                    <path d="M356.864,39.851C360.874,41.237 368.894,44.008 375.115,43.795C386.639,43.4 416.763,39.352 426.006,37.481C428.196,37.038 429.779,34.06 430.571,32.571" style="fill:none;stroke:rgb(3,51,116);stroke-width:1.08px;"/>
                </g>
                <g transform="matrix(1.35508,0,0,1.10065,-259.925,1.37089)">
                    <path d="M357.843,39.46C352.25,39.457 338.979,36.872 342.546,32.565C346.635,27.628 361.635,10.931 382.374,9.839C402.811,8.762 409.392,15.06 413.926,20.54C416.272,23.375 418.941,29.468 415.454,30.644C410.877,32.188 403.791,30.75 391.501,32.587C378.689,34.501 366.002,39.463 357.843,39.46ZM344.004,33.958C344.126,34.083 344.384,34.335 344.597,34.476C344.896,34.675 345.243,34.862 345.625,35.04C348.98,36.606 354.706,37.458 357.844,37.46C365.933,37.463 378.504,32.507 391.205,30.609C398.688,29.491 404.269,29.564 408.54,29.466C411.102,29.408 413.143,29.313 414.815,28.749C415.163,28.632 415.14,28.266 415.13,27.901C415.11,27.222 414.903,26.459 414.611,25.692C414.064,24.249 413.203,22.804 412.385,21.814C408.095,16.629 401.818,10.818 382.479,11.836C362.466,12.89 348.032,29.077 344.087,33.841C344.059,33.874 344.029,33.918 344.004,33.958Z" style="fill:rgb(3,51,116);"/>
                </g>
                <g transform="matrix(1.35508,0,0,1.10065,-259.925,1.37089)">
                    <path d="M347.339,27.994C347.339,27.994 352.742,24.027 356.942,27.11C361.142,30.193 364.041,37.113 364.041,37.113" style="fill:none;stroke:rgb(3,51,116);stroke-width:1px;"/>
                </g>
                <g transform="matrix(1.35508,0,0,1.10065,-259.925,1.37089)">
                    <path d="M360.937,17.697C362.985,17.726 367.081,17.783 369.038,19.767C371.722,22.489 375.269,30.181 377.042,34.028" style="fill:none;stroke:rgb(3,51,116);stroke-width:1px;"/>
                </g>
                <g transform="matrix(1.35508,0,0,1.10065,-259.925,1.37089)">
                    <path d="M372.953,12.508C376.224,12.68 382.766,13.025 385.927,16.058C389.087,19.09 390.973,26.832 391.916,30.703" style="fill:none;stroke:rgb(3,51,116);stroke-width:1px;"/>
                </g>
                <g transform="matrix(1.35508,0,0,1.10065,-259.925,1.37089)">
                    <path d="M389.329,11.152C391.824,11.919 396.814,13.453 399.154,16.32C401.769,19.526 403.938,26.765 405.022,30.384" style="fill:none;stroke:rgb(3,51,116);stroke-width:1px;"/>
                </g>
                <g transform="matrix(1.35508,0,0,1.10065,-259.925,1.37089)">
                    <path d="M403.301,13.736C404.829,15.114 407.883,17.87 409.546,20.429C411.228,23.016 412.669,27.177 413.39,29.258" style="fill:none;stroke:rgb(3,51,116);stroke-width:1px;"/>
                </g>
            </g>
        </g>
    </g>
</svg>
