<?xml version="1.0" encoding="UTF-8" standalone="no"?>
<!DOCTYPE svg PUBLIC "-//W3C//DTD SVG 1.1//EN" "http://www.w3.org/Graphics/SVG/1.1/DTD/svg11.dtd">
<svg width="100%" height="100%" viewBox="0 0 100 50" version="1.1" xmlns="http://www.w3.org/2000/svg" xmlns:xlink="http://www.w3.org/1999/xlink" xml:space="preserve" xmlns:serif="http://www.serif.com/" style="fill-rule:evenodd;clip-rule:evenodd;stroke-linecap:round;stroke-linejoin:round;stroke-miterlimit:1.5;">
    <g transform="matrix(1,0,0,1,-221.922,-0.602372)">
        <g id="serving-filet" transform="matrix(0.737966,0,0,0.90855,82.4895,-2.16385)">
            <rect x="188.941" y="3.045" width="135.508" height="55.033" style="fill:none;"/>
            <g transform="matrix(1.35508,0,0,1.17864,-107.776,1.90212)">
                <ellipse cx="268.968" cy="24.918" rx="43.266" ry="18.769" style="fill:rgb(0,183,236);fill-opacity:0.29;"/>
            </g>
            <g transform="matrix(1,0,0,1,1.35508,1.10065)">
                <g transform="matrix(0.31292,0,0,0.254171,169.718,-25.8322)">
                    <path d="M421.799,286.636C414.473,291.479 398.644,252.71 355.754,252.71C312.864,252.71 304.081,302.101 200.463,302.589C123.111,302.953 122.671,245.06 123.304,225.482C124.023,203.276 124.526,140.954 200.463,141.782C304.076,142.912 312.864,191.661 355.754,191.661C398.644,191.661 414.473,152.403 421.799,157.735C429.125,163.067 388.323,223.65 388.323,223.65C388.323,223.65 429.125,281.793 421.799,286.636Z" style="fill:none;stroke:rgb(3,51,116);stroke-width:8.66px;"/>
                </g>
                <g transform="matrix(1.59945,0,0,1.1461,-169.202,2.29171)">
                    <ellipse cx="244.741" cy="24.966" rx="8.738" ry="16.268" style="fill:none;stroke:rgb(3,51,116);stroke-width:0.9px;"/>
                </g>
                <g transform="matrix(0.355611,0,0,0.255665,134.154,27.6499)">
                    <ellipse cx="244.741" cy="24.966" rx="8.738" ry="16.268" style="fill:rgb(3,51,116);stroke:rgb(3,51,116);stroke-width:4.04px;"/>
                </g>
                <g transform="matrix(1.35306,-0.059946,0.0599889,0.893313,-124.096,21.5885)">
                    <path d="M270.279,12.539C271.001,14.13 272.446,17.311 272.446,25.235C272.446,33.159 271.001,37.282 270.279,39.343" style="fill:none;stroke:rgb(3,51,116);stroke-width:1px;"/>
                </g>
                <g transform="matrix(1.08903,-0.0482483,0.0482828,0.718993,-43.0801,23.114)">
                    <path d="M269.523,12.489C269.523,12.489 271.446,17.311 271.446,25.235C271.446,33.159 269.523,39.292 269.523,39.292" style="fill:none;stroke:rgb(3,51,116);stroke-width:1.24px;"/>
                </g>
                <g transform="matrix(0.810856,-0.0359241,0.0365176,0.543794,40.0014,24.4185)">
                    <path d="M269.948,12.515C269.948,12.515 271.446,17.311 271.446,25.235C271.446,33.159 269.948,39.319 269.948,39.319" style="fill:none;stroke:rgb(3,51,116);stroke-width:1.66px;"/>
                </g>
            </g>
        </g>
    </g>
</svg>
