<?xml version="1.0" encoding="UTF-8" standalone="no"?>
<!DOCTYPE svg PUBLIC "-//W3C//DTD SVG 1.1//EN" "http://www.w3.org/Graphics/SVG/1.1/DTD/svg11.dtd">
<svg width="100%" height="100%" viewBox="0 0 40 40" version="1.1" xmlns="http://www.w3.org/2000/svg" xmlns:xlink="http://www.w3.org/1999/xlink" xml:space="preserve" xmlns:serif="http://www.serif.com/" style="fill-rule:evenodd;clip-rule:evenodd;stroke-linecap:round;stroke-linejoin:round;stroke-miterlimit:1.5;">
    <g transform="matrix(1,0,0,1,-81,-4.94486)">
        <g id="toxin" transform="matrix(0.914327,0,0,1.39028,6.71411,1.94539)">
            <rect x="81.247" y="2.157" width="43.748" height="28.771" style="fill:none;"/>
            <g transform="matrix(0.910731,0,0,0.910731,8.92775,1.06405)">
                <g transform="matrix(0.0749597,0,0,0.0460562,85.8004,3.97213)">
                    <g>
                        <g transform="matrix(1,0,0,0.993078,0,3.38181)">
                            <path d="M249.785,305.36L155.959,304.342L62.367,435.794L62.367,488.566L240.9,488.566" style="fill:rgb(0,183,236);"/>
                        </g>
                        <path d="M234.576,77.558L187.957,77.558L187.957,252.608L62.367,435.794L62.367,488.566L240.9,488.566" style="fill:none;stroke:rgb(3,51,116);stroke-width:18.96px;"/>
                    </g>
                </g>
                <g transform="matrix(-0.0749597,0,0,0.0460562,121.051,3.94683)">
                    <g>
                        <g transform="matrix(1,0,0,0.993078,0,3.38181)">
                            <path d="M249.785,305.36L155.959,304.342L62.367,435.794L62.367,488.566L240.9,488.566" style="fill:rgb(0,183,236);"/>
                        </g>
                        <path d="M234.576,77.558L187.957,77.558L187.957,252.608L62.367,435.794L62.367,488.566L240.9,488.566" style="fill:none;stroke:rgb(3,51,116);stroke-width:18.96px;"/>
                    </g>
                </g>
            </g>
        </g>
    </g>
</svg>
